<svg xmlns="http://www.w3.org/2000/svg" aria-hidden="true" overflow="hidden" style="position:absolute;width:0;height:0">
  <defs>
    <symbol id="icon-star" viewBox="0 0 32 32">
      <path d="m6.857.164 10.657 10.184 14.321-3.491-10.184 10.657 3.491 14.321-10.657-10.184L.164 25.142l10.184-10.657L6.857.164z"/>
    </symbol>
    <symbol id="icon-close" viewBox="0 0 32 32">
      <path stroke-linecap="round" stroke-width="3.556" d="M1.778 1.778 16 16 30.222 1.778M1.778 30.222 16 16l14.222 14.222"/>
    </symbol>
    <symbol id="icon-arrow" viewBox="0 0 36 32">
      <path d="M1.062 17.414a2 2 0 0 1 0-2.828L13.79 1.858a2 2 0 1 1 2.828 2.828L5.304 16l11.314 11.314a2 2 0 1 1-2.828 2.828L1.062 17.414zM36 18H2.476v-4H36v4z"/>
    </symbol>
    <symbol id="icon-cosmetics-bottle" viewBox="0 0 31 32">
      <path d="M8.56 12.129H-.121a.472.472 0 0 0-.482.463v2.776c0 .256.216.463.482.463h.482v10.642c0 .256.216.463.482.463h6.752a.472.472 0 0 0 .482-.463V15.831h.482a.472.472 0 0 0 .482-.463v-2.776a.473.473 0 0 0-.482-.463zM3.255 20.92v-.925h2.894v-.925H3.255v-.925h3.858v6.015H3.255v-2.313h.965v-.925h-.965zm3.858-3.701h-4.34a.472.472 0 0 0-.482.463v6.94c0 .256.216.463.482.463h4.34v.925H1.326V15.831h5.787v1.388zm.965-2.314H.362v-1.851h7.716v1.851zm6.872-2.689V8.833a.48.48 0 0 0-.482-.476h-.482V5.975h.964v-.953H9.645v.953h3.376v2.382h-.482a.478.478 0 0 0-.482.476v3.383c-1.099.222-1.929 1.183-1.929 2.334v11.909a.48.48 0 0 0 .482.476h5.787a.478.478 0 0 0 .482-.476V14.55c0-1.15-.83-2.112-1.929-2.334zM13.021 9.31h.964v2.858h-.964V9.31zm-.482 3.811h1.929a1.44 1.44 0 0 1 1.447 1.429v.476h-4.823v-.476a1.44 1.44 0 0 1 1.447-1.429zm3.376 10.956h-4.823v-.953h1.929v-.953h-1.929v-6.193h4.823v8.098zm-4.823 1.906v-.953h4.823v.953h-4.823zm16.186-14.446H19.14a.46.46 0 0 0-.452.467v14.465a.46.46 0 0 0 .452.467h8.138a.46.46 0 0 0 .452-.467V12.004a.46.46 0 0 0-.452-.467zm-.452 14.465h-7.234V12.47h7.234v13.532z"/>
      <path d="M6.631 21.013H5.425v.592h1.206v-.592zm8.44 1.184h-1.206v1.185h1.206v-1.185zm-1.507-1.184c1.164 0 2.11-.93 2.11-2.073s-.946-2.073-2.11-2.073-2.11.93-2.11 2.073.946 2.073 2.11 2.073zm0-3.109c.582 0 1.055.465 1.055 1.036s-.473 1.036-1.055 1.036-1.055-.465-1.055-1.036.473-1.036 1.055-1.036zm8.515-1.629h2.261c.873 0 1.582-.664 1.582-1.481s-.71-1.481-1.582-1.481h-2.261c-.873 0-1.582.664-1.582 1.481s.71 1.481 1.582 1.481zm2.938-1.481c0 .35-.304.634-.678.634h-.678v-1.269h.678c.374 0 .678.285.678.635zm-2.938-.634h.678v1.269h-.678c-.374 0-.678-.285-.678-.634s.304-.635.678-.635zm0 6.853h2.261c.873 0 1.582-.797 1.582-1.777s-.71-1.777-1.582-1.777h-2.261c-.873 0-1.582.797-1.582 1.777s.71 1.777 1.582 1.777zm2.938-1.777c0 .42-.304.761-.678.761h-.678v-1.523h.678c.374 0 .678.342.678.761zm-2.938-.761h.678v1.523h-.678c-.374 0-.678-.342-.678-.761s.304-.761.678-.761zm0 6.684h2.261c.873 0 1.582-.797 1.582-1.777s-.71-1.777-1.582-1.777h-2.261c-.873 0-1.582.797-1.582 1.777s.71 1.777 1.582 1.777zm2.938-1.777c0 .42-.304.761-.678.761h-.678V22.62h.678c.374 0 .678.342.678.761zm-2.938-.761h.678v1.523h-.678c-.374 0-.678-.342-.678-.761s.304-.761.678-.761z"/>
    </symbol>
    <symbol id="icon-crown" viewBox="0 0 32 32">
      <path d="M29.687 10.326c-.253-.229-.559-.376-.883-.425s-.655.003-.954.15l-6.312 3.08a.215.215 0 0 1-.184.021.243.243 0 0 1-.142-.13l-3.688-7.287c-.15-.301-.37-.553-.638-.728s-.575-.268-.887-.268c-.312 0-.618.092-.887.268s-.489.427-.638.728l-3.687 7.287a.239.239 0 0 1-.142.13c-.03.01-.062.014-.094.01s-.062-.014-.09-.031l-6.313-3.08c-.298-.149-.628-.202-.953-.155s-.631.194-.883.423-.442.532-.546.873a2.112 2.112 0 0 0-.043 1.059l3.188 14.891c.054.252.154.489.293.697s.316.383.519.513a1.585 1.585 0 0 0 1.363.206 30.563 30.563 0 0 1 17.812-.014 1.602 1.602 0 0 0 1.367-.186 1.8 1.8 0 0 0 .524-.516c.141-.209.242-.447.297-.701l3.175-14.891c.079-.348.067-.713-.034-1.054s-.289-.643-.541-.871zm-.875 1.54-3.188 14.891a.321.321 0 0 1-.112.179.29.29 0 0 1-.2.028 31.912 31.912 0 0 0-18.625 0 .23.23 0 0 1-.197-.029.284.284 0 0 1-.116-.178L3.186 11.866a.324.324 0 0 1 .003-.124.288.288 0 0 1 .138-.189.235.235 0 0 1 .109-.03l.1.028 6.325 3.094c.399.198.851.222 1.266.069s.762-.472.972-.894l3.688-7.287a.26.26 0 0 1 .088-.106.22.22 0 0 1 .25 0 .248.248 0 0 1 .088.106L19.9 13.82c.21.422.557.742.972.894s.867.128 1.266-.069l6.325-3.094c.043-.021.09-.028.137-.021s.09.029.126.062c.037.032.064.075.08.124s.018.101.008.151zm-8.062 10.45c-.021.203-.109.391-.247.527s-.317.213-.503.215h-.075a35.646 35.646 0 0 0-7.85 0c-.197.023-.395-.041-.549-.177s-.254-.335-.276-.552c-.018-.218.043-.435.169-.605s.308-.278.506-.302a35.151 35.151 0 0 1 8.15 0c.196.024.375.131.501.297s.188.38.174.596z"/>
    </symbol>
    <symbol id="icon-facebook" viewBox="0 0 32 32">
      <path d="M23.987 2.128a37.26 37.26 0 0 0-4.049-.208c-4.484 0-7.271 2.856-7.271 7.453v3.121H8.9a.665.665 0 0 0-.666.666v5.133a.665.665 0 0 0 .666.666h3.767v10.293a.665.665 0 0 0 .666.666h5.304a.665.665 0 0 0 .666-.666V18.959h3.755a.662.662 0 0 0 .661-.58l.663-5.133a.662.662 0 0 0-.386-.694.65.65 0 0 0-.275-.059h-4.417V9.881c0-1.293.26-1.833 1.877-1.833H23.9a.665.665 0 0 0 .666-.666V2.789a.662.662 0 0 0-.58-.661zm-.754 4.587-2.053.001c-2.876 0-3.209 1.808-3.209 3.167v3.28a.665.665 0 0 0 .666.667h4.328l-.492 3.8h-3.835a.665.665 0 0 0-.666.666v10.291h-3.971V18.296a.665.665 0 0 0-.666-.666H9.57v-3.8h3.765a.665.665 0 0 0 .666-.666V9.375c0-3.832 2.22-6.12 5.937-6.12 1.345 0 2.56.073 3.296.137v3.324z"/>
    </symbol>
    <symbol id="icon-instagram" viewBox="0 0 32 32">
      <path d="M16 10.25a5.746 5.746 0 0 0-5.312 3.55 5.75 5.75 0 1 0 5.313-3.549zm0 10a4.248 4.248 0 0 1-3.005-7.255 4.253 4.253 0 0 1 6.539.644A4.25 4.25 0 0 1 20.25 16 4.265 4.265 0 0 1 16 20.25zm5.5-16.5h-11a6.75 6.75 0 0 0-6.75 6.75v11a6.75 6.75 0 0 0 6.75 6.75h11a6.75 6.75 0 0 0 6.75-6.75v-11a6.75 6.75 0 0 0-6.75-6.75zm5.25 17.75a5.247 5.247 0 0 1-5.25 5.25h-11a5.247 5.247 0 0 1-5.25-5.25v-11a5.247 5.247 0 0 1 5.25-5.25h11a5.247 5.247 0 0 1 5.25 5.25v11zm-3-12a1.243 1.243 0 0 1-.772 1.154 1.249 1.249 0 0 1-1.173-2.194 1.254 1.254 0 0 1 1.579.155c.235.234.366.552.366.884z"/>
    </symbol>
    <symbol id="icon-materials" viewBox="0 0 32 32">
      <path d="M16.061 1.4c-1.05 0-2.031.478-2.867 1.261s-1.551 1.874-2.148 3.195c-.125.277-.244.564-.359.861a16.087 16.087 0 0 0-.927-.12 13.895 13.895 0 0 0-1.054-.066c-1.026-.024-1.964.08-2.786.329-1.096.332-2 .943-2.525 1.852s-.601 1.998-.341 3.113c.26 1.115.847 2.28 1.693 3.457.178.247.367.494.567.742-.196.242-.385.489-.566.741-.846 1.177-1.433 2.342-1.693 3.457s-.184 2.204.341 3.113c.525.909 1.429 1.52 2.525 1.852s2.398.407 3.841.263c.302-.03.611-.071.926-.12.112.291.231.579.359.863.596 1.321 1.312 2.412 2.148 3.195s1.817 1.261 2.867 1.261 2.031-.478 2.866-1.261 1.551-1.874 2.148-3.195c.128-.284.248-.572.359-.862.314.049.623.09.925.12 1.442.144 2.745.07 3.841-.263s2.001-.943 2.526-1.852c.525-.909.601-1.998.341-3.113s-.847-2.28-1.693-3.457c-.182-.252-.371-.5-.567-.741.196-.242.385-.489.567-.742.846-1.177 1.433-2.342 1.693-3.457s.184-2.204-.341-3.113c-.525-.909-1.429-1.52-2.525-1.852-.822-.249-1.76-.353-2.786-.329-.342.008-.694.03-1.055.066a16.8 16.8 0 0 0-.926.12c-.111-.29-.231-.577-.359-.861-.596-1.321-1.312-2.412-2.148-3.195s-1.817-1.261-2.866-1.261zm0 1.168c.7 0 1.387.308 2.068.946s1.331 1.603 1.882 2.823c.09.199.175.4.255.603a24.805 24.805 0 0 0-4.205 1.364 24.805 24.805 0 0 0-4.205-1.364c.083-.207.167-.409.255-.603.551-1.22 1.201-2.185 1.882-2.823s1.368-.946 2.068-.946zM8.337 7.696a12.707 12.707 0 0 1 1.309.062c.213.021.43.048.652.08a24.722 24.722 0 0 0-.921 4.324 24.81 24.81 0 0 0-3.284 2.96 13.294 13.294 0 0 1-.395-.524c-.781-1.087-1.292-2.133-1.504-3.041s-.135-1.657.215-2.264c.35-.607.96-1.047 1.853-1.318.586-.178 1.287-.273 2.077-.281zm15.448 0c.789.007 1.491.103 2.077.281.893.271 1.503.711 1.853 1.318s.427 1.355.215 2.264c-.212.909-.723 1.954-1.504 3.041-.128.177-.26.352-.395.524a24.81 24.81 0 0 0-3.284-2.96 24.72 24.72 0 0 0-.922-4.324c.221-.032.438-.059.651-.08a11.984 11.984 0 0 1 1.309-.062zm-3.12.353c.311.965.568 2.029.76 3.169a31.692 31.692 0 0 0-3.884-2.243 22.647 22.647 0 0 1 3.124-.926zm-9.208 0c.991.213 2.041.523 3.123.926a31.805 31.805 0 0 0-3.883 2.242 22.64 22.64 0 0 1 .76-3.168zm4.604 1.529c.95.419 1.915.906 2.877 1.462s1.867 1.147 2.705 1.761c.112 1.033.173 2.112.173 3.223s-.06 2.189-.172 3.222c-.838.614-1.743 1.205-2.705 1.761s-1.927 1.043-2.877 1.462c-.951-.419-1.916-.907-2.878-1.462s-1.866-1.147-2.704-1.76a29.94 29.94 0 0 1 0-6.446c.838-.614 1.743-1.205 2.705-1.761s1.926-1.043 2.877-1.462zm.079 1.757-3.344 2.064 3.344 2.064 3.344-2.064-3.344-2.064zm-6.923 2.446a31.648 31.648 0 0 0 0 4.484 22.675 22.675 0 0 1-2.364-2.242 22.675 22.675 0 0 1 2.364-2.242zm13.688 0c.89.736 1.683 1.49 2.363 2.242a22.76 22.76 0 0 1-2.363 2.242 31.611 31.611 0 0 0-.001-4.483zm-10.862.525v4.075l3.512 2.167v-4.075l-3.512-2.168zm8.191.002-3.511 2.167v4.073l3.511-2.167v-4.073zM6.091 16.923a24.74 24.74 0 0 0 3.284 2.96c.196 1.56.51 3.016.921 4.323-.221.032-.438.059-.65.08-1.331.133-2.493.053-3.386-.218s-1.502-.712-1.853-1.318c-.35-.607-.427-1.355-.215-2.264s.723-1.954 1.504-3.041c.128-.177.259-.352.395-.523zm19.939 0c.138.175.27.349.395.523.781 1.087 1.292 2.133 1.504 3.041s.135 1.657-.215 2.264c-.35.606-.96 1.047-1.853 1.318s-2.054.351-3.386.218a15.79 15.79 0 0 1-.65-.08c.412-1.308.725-2.764.921-4.324a24.794 24.794 0 0 0 3.283-2.959zm-4.605 3.905a22.655 22.655 0 0 1-.76 3.169 22.688 22.688 0 0 1-3.124-.926 32.057 32.057 0 0 0 3.884-2.242zm-10.727.001a32.168 32.168 0 0 0 3.883 2.242 22.635 22.635 0 0 1-3.123.926 22.503 22.503 0 0 1-.759-3.168zm5.398.053.043.026.042-.026h-.085zm-.035 2.861a24.725 24.725 0 0 0 4.206 1.364 14.57 14.57 0 0 1-.256.604c-.551 1.22-1.201 2.185-1.882 2.823s-1.368.946-2.068.946-1.387-.308-2.068-.946-1.331-1.603-1.882-2.823c-.09-.2-.175-.401-.256-.604a24.805 24.805 0 0 0 4.205-1.364z"/>
    </symbol>
    <symbol id="icon-telephone" viewBox="0 0 32 32">
      <path d="m27.655 22.957-.173-.216c-1.372-1.735-2.519-2.637-3.503-2.756-.851-.116-1.673.472-2.548 1.077l-.935.584a2.054 2.054 0 0 1-.327.132c-.547.155-1.927.245-2.708-.469-.909-.832-2.32-2.355-3.417-3.685-1.048-1.377-2.2-3.095-2.801-4.176-.508-.916-.083-2.197.201-2.672.056-.093.129-.185.211-.276l.824-.761c.012-.012.017-.027.028-.037.008-.008.021-.005.031-.012.744-.628 1.513-1.275 1.619-2.105.124-.976-.483-2.296-1.857-4.029l-.168-.216C11.281 2.249 9.995.6 8.147.872c-.727.108-1.376.356-2.045.776-.007.004-.011.012-.016.016s-.012.004-.017.008l-.932.691c-.009.005-.015.017-.024.025-.007.007-.017.008-.025.015a13.74 13.74 0 0 0-.323.28c-.945.843-2.992 3.289-1.596 7.815.901 2.923 2.76 6.333 5.388 9.883l-.025.021 1.449 1.805.012-.009c2.849 3.371 5.749 5.976 8.407 7.553 1.773 1.053 3.323 1.401 4.597 1.401 1.677 0 2.879-.603 3.481-.995l.379-.253c.043-.029.073-.071.104-.108l.825-.621c.009-.008.015-.019.024-.027.004-.004.011-.003.016-.007.587-.536.993-1.097 1.276-1.763.732-1.705-.579-3.339-1.445-4.42zm.465 4.002c-.22.517-.541.957-1.005 1.384l-1.228.924c-1.112.723-3.489 1.616-6.943-.435-2.657-1.577-5.583-4.244-8.461-7.712l-.779-.984c-2.711-3.595-4.617-7.037-5.517-9.955-1.169-3.793.304-5.828 1.291-6.707.1-.091.2-.175.299-.259l.004-.004.895-.663a4.067 4.067 0 0 1 1.628-.624c1.239-.187 2.247 1.12 2.987 2.069l.173.22C13 6.15 13.148 7.072 13.1 7.448c-.053.417-.688.952-1.248 1.423l-.079.067c-.003.003-.004.007-.007.009l-.012.007-.852.788c-.005.005-.008.012-.013.019s-.016.009-.021.016a3.007 3.007 0 0 0-.337.449c-.479.801-.931 2.457-.217 3.739.623 1.12 1.808 2.889 2.897 4.319 1.139 1.381 2.591 2.949 3.532 3.809.705.644 1.687.86 2.536.86.455 0 .872-.063 1.188-.152.167-.048.339-.117.516-.204.011-.005.016-.015.027-.021.005-.003.013-.001.019-.005l.989-.619c.032-.021.053-.049.08-.076l.012.013c.609-.423 1.304-.919 1.739-.847.385.047 1.26.417 2.799 2.36l.177.223c.749.935 1.776 2.215 1.297 3.333z"/>
    </symbol>
  </defs>
</svg>
