<svg xmlns="http://www.w3.org/2000/svg" width="73" height="37" fill="none" viewBox="0 0 73 37">
  <path fill="#2B7FFF" d="M1.54.722h5.786c1.364 0 2.413.103 3.146.308.748.19 1.276.506 1.584.946.308.425.462 1.027.462 1.804v1.76c0 .396-.161.77-.484 1.122a2.379 2.379 0 0 1-1.1.726v.11c.557.059 1.063.3 1.518.726.47.41.704.873.704 1.386v2.2c0 1.159-.462 1.98-1.386 2.464-.924.484-2.354.726-4.29.726H1.54V.722ZM7.326 6.53c.543 0 .946-.044 1.21-.132.264-.088.44-.227.528-.418.103-.205.154-.499.154-.88v-.704c0-.337-.044-.587-.132-.748-.088-.176-.271-.3-.55-.374-.264-.073-.69-.11-1.276-.11H4.972V6.53h2.354Zm.088 6.028c.836 0 1.43-.095 1.782-.286.352-.19.528-.499.528-.924v-1.144c0-.528-.14-.902-.418-1.122-.264-.22-.74-.33-1.43-.33H4.972v3.806h2.442Zm13.305 2.662c-3.77 0-5.654-1.151-5.654-3.454V7.938c0-1.335.425-2.303 1.276-2.904.865-.601 2.192-.902 3.982-.902 1.686 0 2.918.293 3.696.88.792.572 1.188 1.547 1.188 2.926v2.596h-6.908v.968c0 .616.22 1.056.66 1.32.44.264 1.232.396 2.376.396 1.056 0 2.244-.154 3.564-.462v2.046a19.993 19.993 0 0 1-4.18.418Zm1.43-6.512v-1.54c0-.352-.147-.616-.44-.792-.279-.176-.756-.264-1.43-.264-.777 0-1.298.088-1.562.264a.908.908 0 0 0-.418.792v1.54h3.85Zm8.527 6.512c-.997 0-1.745-.088-2.244-.264a1.808 1.808 0 0 1-1.034-.99c-.19-.484-.286-1.203-.286-2.156 0-.85.103-1.518.308-2.002.22-.484.565-.829 1.034-1.034.484-.22 1.144-.33 1.98-.33h3.608v-.726c0-.455-.066-.792-.198-1.012-.117-.22-.345-.374-.682-.462-.323-.088-.814-.132-1.474-.132-.91 0-2.156.088-3.74.264V4.352c1.159-.147 2.515-.22 4.07-.22 1.364 0 2.413.103 3.146.308.748.205 1.283.557 1.606 1.056.323.499.484 1.225.484 2.178V15h-3.146v-.968c-.25.425-.587.726-1.012.902-.425.19-1.232.286-2.42.286Zm1.254-2.002c.645 0 1.107-.022 1.386-.066.205-.03.345-.073.418-.132a.647.647 0 0 0 .22-.286c.059-.103.088-.257.088-.462v-2.068h-2.2c-.499 0-.85.037-1.056.11a.597.597 0 0 0-.418.396c-.073.19-.11.535-.11 1.034 0 .484.037.821.11 1.012a.6.6 0 0 0 .418.374c.22.059.601.088 1.144.088Zm11.846 2.002c-1.364 0-2.325-.242-2.882-.726-.543-.499-.814-1.276-.814-2.332v-7.81h3.212v7.37c0 .41.036.719.11.924.088.205.25.352.484.44.25.088.623.132 1.122.132.63 0 1.092-.037 1.386-.11.293-.088.491-.235.594-.44.102-.205.154-.52.154-.946v-7.37h3.212V15h-3.168v-1.298c-.235 1.012-1.371 1.518-3.41 1.518Zm14.712 0c-.543 0-.998-.022-1.364-.066a4.999 4.999 0 0 1-1.1-.264 2.782 2.782 0 0 1-1.012-.55c-.25-.235-.455-.557-.616-.968-.176-.425-.264-.917-.264-1.474V6.332h-2.156v-1.98h2.156v-3.08h3.212v3.08h2.926v1.98h-2.926v5.016c0 .513.044.902.132 1.166.088.25.257.433.506.55.25.103.63.154 1.144.154.205 0 .587-.037 1.144-.11v2.002a17.2 17.2 0 0 1-1.782.11Zm6.649-.308L60.89 4.352h3.498l2.398 7.524 2.178-7.524h3.322l-5.83 15.224H63.2l1.936-4.664ZM.88 33.91l7.436-9.746H1.1v-2.442h11.44v2.068l-7.436 9.746h7.568V36H.88v-2.09Zm19.103 2.31c-.66 0-1.203-.022-1.628-.066a8.551 8.551 0 0 1-1.364-.264c-.528-.147-.954-.352-1.276-.616-.323-.279-.594-.667-.814-1.166-.22-.484-.33-1.07-.33-1.76v-3.146c0-.704.11-1.32.33-1.848.22-.528.506-.939.858-1.232.308-.25.711-.455 1.21-.616a6.4 6.4 0 0 1 1.496-.33 28.37 28.37 0 0 1 1.518-.044c.674 0 1.21.022 1.606.066.41.03.858.117 1.342.264.528.161.953.381 1.276.66.337.279.623.675.858 1.188.22.528.33 1.159.33 1.892v3.146c0 .66-.11 1.24-.33 1.738-.206.499-.477.887-.814 1.166-.294.25-.697.455-1.21.616-.499.147-.99.242-1.474.286-.44.044-.968.066-1.584.066Zm0-2.002c.601 0 1.056-.044 1.364-.132.308-.103.52-.257.638-.462.132-.205.198-.506.198-.902v-4.026c0-.587-.154-.997-.462-1.232-.308-.235-.888-.352-1.738-.352-.851 0-1.43.117-1.738.352-.308.235-.462.645-.462 1.232v4.026c0 .396.058.697.176.902.132.205.352.36.66.462.308.088.762.132 1.364.132Zm7.915-8.866h3.168v1.298c.25-1.012 1.386-1.518 3.41-1.518 1.364 0 2.318.25 2.86.748.558.484.836 1.254.836 2.31V36H34.96v-7.392c0-.41-.044-.719-.132-.924-.073-.205-.234-.352-.484-.44-.234-.088-.601-.132-1.1-.132-.63 0-1.092.044-1.386.132-.293.073-.491.213-.594.418-.102.205-.154.52-.154.946V36h-3.212V25.352Zm18.43 10.868c-3.77 0-5.654-1.151-5.654-3.454v-3.828c0-1.335.426-2.303 1.276-2.904.866-.601 2.193-.902 3.982-.902 1.687 0 2.919.293 3.696.88.792.572 1.188 1.547 1.188 2.926v2.596h-6.908v.968c0 .616.22 1.056.66 1.32.44.264 1.232.396 2.376.396 1.056 0 2.244-.154 3.564-.462v2.046a19.993 19.993 0 0 1-4.18.418Zm1.43-6.512v-1.54c0-.352-.146-.616-.44-.792-.278-.176-.755-.264-1.43-.264-.777 0-1.298.088-1.562.264a.908.908 0 0 0-.418.792v1.54h3.85Z"/>
</svg>
